<svg width="800" height="600" xmlns="http://www.w3.org/2000/svg">
  <defs>
    <linearGradient id="bg5" x1="0%" y1="0%" x2="100%" y2="100%">
      <stop offset="0%" style="stop-color:#1e3a8a;stop-opacity:1" />
      <stop offset="100%" style="stop-color:#1e40af;stop-opacity:1" />
    </linearGradient>
  </defs>
  <rect width="800" height="600" fill="url(#bg5)"/>
  <!-- Wall -->
  <rect x="0" y="0" width="800" height="400" fill="#3b82f6"/>
  <!-- Floor -->
  <rect x="0" y="400" width="800" height="200" fill="#1e40af"/>
  <!-- Upper cabinets -->
  <rect x="100" y="100" width="200" height="200" fill="#fbbf24"/>
  <line x1="200" y1="100" x2="200" y2="300" stroke="#f59e0b" stroke-width="3"/>
  <rect x="350" y="100" width="200" height="200" fill="#fbbf24"/>
  <line x1="450" y1="100" x2="450" y2="300" stroke="#f59e0b" stroke-width="3"/>
  <!-- Lower cabinets -->
  <rect x="100" y="400" width="200" height="150" fill="#f59e0b"/>
  <line x1="200" y1="400" x2="200" y2="550" stroke="#fbbf24" stroke-width="3"/>
  <rect x="350" y="400" width="200" height="150" fill="#f59e0b"/>
  <line x1="450" y1="400" x2="450" y2="550" stroke="#fbbf24" stroke-width="3"/>
  <!-- Countertop -->
  <rect x="100" y="380" width="450" height="20" fill="#fbbf24"/>
  <!-- Window -->
  <rect x="600" y="150" width="150" height="200" fill="#60a5fa" stroke="#fbbf24" stroke-width="4"/>
  <line x1="675" y1="150" x2="675" y2="350" stroke="#fbbf24" stroke-width="3"/>
  <line x1="600" y1="250" x2="750" y2="250" stroke="#fbbf24" stroke-width="3"/>
  <!-- Decorative elements -->
  <circle cx="50" cy="50" r="30" fill="#fbbf24" opacity="0.5"/>
  <text x="250" y="550" font-family="Arial" font-size="24" fill="#fbbf24" font-weight="bold">Cocina Moderna</text>
</svg>