<svg width="800" height="600" xmlns="http://www.w3.org/2000/svg">
  <defs>
    <linearGradient id="bg6" x1="0%" y1="0%" x2="100%" y2="100%">
      <stop offset="0%" style="stop-color:#1e3a8a;stop-opacity:1" />
      <stop offset="100%" style="stop-color:#1e40af;stop-opacity:1" />
    </linearGradient>
  </defs>
  <rect width="800" height="600" fill="url(#bg6)"/>
  <!-- Walls -->
  <rect x="0" y="0" width="800" height="450" fill="#3b82f6"/>
  <!-- Floor -->
  <rect x="0" y="450" width="800" height="150" fill="#1e40af"/>
  <!-- Tables -->
  <circle cx="200" cy="350" r="50" fill="#fbbf24"/>
  <rect x="150" y="400" width="100" height="15" fill="#f59e0b"/>
  <circle cx="400" cy="300" r="50" fill="#fbbf24"/>
  <rect x="350" y="350" width="100" height="15" fill="#f59e0b"/>
  <circle cx="600" cy="350" r="50" fill="#fbbf24"/>
  <rect x="550" y="400" width="100" height="15" fill="#f59e0b"/>
  <!-- Chairs -->
  <circle cx="150" cy="450" r="20" fill="#f59e0b"/>
  <circle cx="250" cy="450" r="20" fill="#f59e0b"/>
  <circle cx="350" cy="400" r="20" fill="#f59e0b"/>
  <circle cx="450" cy="400" r="20" fill="#f59e0b"/>
  <circle cx="550" cy="450" r="20" fill="#f59e0b"/>
  <circle cx="650" cy="450" r="20" fill="#f59e0b"/>
  <!-- Accent wall -->
  <rect x="0" y="0" width="200" height="450" fill="#fbbf24" opacity="0.3"/>
  <!-- Decorative circles -->
  <circle cx="700" cy="100" r="60" fill="#fbbf24" opacity="0.4"/>
  <circle cx="750" cy="150" r="40" fill="#fbbf24" opacity="0.3"/>
  <circle cx="50" cy="80" r="35" fill="#fbbf24" opacity="0.3"/>
  <text x="250" y="550" font-family="Arial" font-size="24" fill="#fbbf24" font-weight="bold">Restaurante Moderno</text>
</svg>